<?xml version="1.0" encoding="utf-8" standalone="no"?>
<!DOCTYPE svg PUBLIC "-//W3C//DTD SVG 1.1//EN"
  "http://www.w3.org/Graphics/SVG/1.1/DTD/svg11.dtd">
<!-- Created with matplotlib (https://matplotlib.org/) -->
<svg height="345.6pt" version="1.1" viewBox="0 0 460.8 345.6" width="460.8pt" xmlns="http://www.w3.org/2000/svg" xmlns:xlink="http://www.w3.org/1999/xlink">
 <metadata>
  <rdf:RDF xmlns:cc="http://creativecommons.org/ns#" xmlns:dc="http://purl.org/dc/elements/1.1/" xmlns:rdf="http://www.w3.org/1999/02/22-rdf-syntax-ns#">
   <cc:Work>
    <dc:type rdf:resource="http://purl.org/dc/dcmitype/StillImage"/>
    <dc:date>2021-05-27T23:11:52.976116</dc:date>
    <dc:format>image/svg+xml</dc:format>
    <dc:creator>
     <cc:Agent>
      <dc:title>Matplotlib v3.3.4, https://matplotlib.org/</dc:title>
     </cc:Agent>
    </dc:creator>
   </cc:Work>
  </rdf:RDF>
 </metadata>
 <defs>
  <style type="text/css">*{stroke-linecap:butt;stroke-linejoin:round;}</style>
 </defs>
 <g id="figure_1">
  <g id="patch_1">
   <path d="M 0 345.6 
L 460.8 345.6 
L 460.8 0 
L 0 0 
z
" style="fill:#ffffff;"/>
  </g>
  <g id="axes_1">
   <g id="patch_2">
    <path d="M 57.6 307.584 
L 414.72 307.584 
L 414.72 41.472 
L 57.6 41.472 
z
" style="fill:#ffffff;"/>
   </g>
   <g id="PathCollection_1">
    <path clip-path="url(#p7402d0ae33)" d="M 380.018042 176.523579 
C 380.591595 176.523579 381.141734 176.295704 381.547297 175.890141 
C 381.95286 175.484578 382.180735 174.934439 382.180735 174.360886 
C 382.180735 173.787334 381.95286 173.237195 381.547297 172.831632 
C 381.141734 172.426069 380.591595 172.198194 380.018042 172.198194 
C 379.44449 172.198194 378.894351 172.426069 378.488788 172.831632 
C 378.083225 173.237195 377.85535 173.787334 377.85535 174.360886 
C 377.85535 174.934439 378.083225 175.484578 378.488788 175.890141 
C 378.894351 176.295704 379.44449 176.523579 380.018042 176.523579 
z
" style="fill:#440154;stroke:#440154;"/>
    <path clip-path="url(#p7402d0ae33)" d="M 391.684171 67.650667 
C 393.316145 67.650667 394.881497 67.002277 396.035476 65.848297 
C 397.189456 64.694318 397.837846 63.128966 397.837846 61.496992 
C 397.837846 59.865019 397.189456 58.299667 396.035476 57.145687 
C 394.881497 55.991708 393.316145 55.343318 391.684171 55.343318 
C 390.052198 55.343318 388.486846 55.991708 387.332866 57.145687 
C 386.178887 58.299667 385.530497 59.865019 385.530497 61.496992 
C 385.530497 63.128966 386.178887 64.694318 387.332866 65.848297 
C 388.486846 67.002277 390.052198 67.650667 391.684171 67.650667 
z
" style="fill:#fde725;stroke:#fde725;"/>
    <path clip-path="url(#p7402d0ae33)" d="M 93.985863 231.659075 
C 95.142712 231.659075 96.252335 231.199454 97.070351 230.381439 
C 97.888366 229.563423 98.347987 228.4538 98.347987 227.296951 
C 98.347987 226.140102 97.888366 225.030479 97.070351 224.212463 
C 96.252335 223.394448 95.142712 222.934827 93.985863 222.934827 
C 92.829014 222.934827 91.719391 223.394448 90.901376 224.212463 
C 90.08336 225.030479 89.623739 226.140102 89.623739 227.296951 
C 89.623739 228.4538 90.08336 229.563423 90.901376 230.381439 
C 91.719391 231.199454 92.829014 231.659075 93.985863 231.659075 
z
" style="fill:#31688e;stroke:#31688e;"/>
    <path clip-path="url(#p7402d0ae33)" d="M 395.982205 164.980424 
C 396.57582 164.980424 397.145201 164.744579 397.56495 164.32483 
C 397.984699 163.905081 398.220545 163.335699 398.220545 162.742084 
C 398.220545 162.14847 397.984699 161.579088 397.56495 161.159339 
C 397.145201 160.73959 396.57582 160.503745 395.982205 160.503745 
C 395.38859 160.503745 394.819209 160.73959 394.39946 161.159339 
C 393.979711 161.579088 393.743865 162.14847 393.743865 162.742084 
C 393.743865 163.335699 393.979711 163.905081 394.39946 164.32483 
C 394.819209 164.744579 395.38859 164.980424 395.982205 164.980424 
z
" style="fill:#35b779;stroke:#35b779;"/>
    <path clip-path="url(#p7402d0ae33)" d="M 346.470512 286.274954 
C 347.743033 286.274954 348.963605 285.769377 349.863413 284.869569 
C 350.763221 283.969761 351.268799 282.749188 351.268799 281.476668 
C 351.268799 280.204147 350.763221 278.983574 349.863413 278.083766 
C 348.963605 277.183958 347.743033 276.678381 346.470512 276.678381 
C 345.197992 276.678381 343.977419 277.183958 343.077611 278.083766 
C 342.177803 278.983574 341.672225 280.204147 341.672225 281.476668 
C 341.672225 282.749188 342.177803 283.969761 343.077611 284.869569 
C 343.977419 285.769377 345.197992 286.274954 346.470512 286.274954 
z
" style="fill:#482677;stroke:#482677;"/>
    <path clip-path="url(#p7402d0ae33)" d="M 235.888476 302.179753 
C 237.663149 302.179753 239.365376 301.474667 240.620259 300.219784 
C 241.875143 298.9649 242.580228 297.262674 242.580228 295.488 
C 242.580228 293.713326 241.875143 292.0111 240.620259 290.756216 
C 239.365376 289.501333 237.663149 288.796247 235.888476 288.796247 
C 234.113802 288.796247 232.411576 289.501333 231.156692 290.756216 
C 229.901808 292.0111 229.196723 293.713326 229.196723 295.488 
C 229.196723 297.262674 229.901808 298.9649 231.156692 300.219784 
C 232.411576 301.474667 234.113802 302.179753 235.888476 302.179753 
z
" style="fill:#481769;stroke:#481769;"/>
    <path clip-path="url(#p7402d0ae33)" d="M 398.487273 215.670401 
C 399.47236 215.670401 400.417234 215.279022 401.113796 214.582459 
C 401.810359 213.885897 402.201738 212.941023 402.201738 211.955936 
C 402.201738 210.970848 401.810359 210.025974 401.113796 209.329412 
C 400.417234 208.63285 399.47236 208.24147 398.487273 208.24147 
C 397.502185 208.24147 396.557311 208.63285 395.860749 209.329412 
C 395.164187 210.025974 394.772807 210.970848 394.772807 211.955936 
C 394.772807 212.941023 395.164187 213.885897 395.860749 214.582459 
C 396.557311 215.279022 397.502185 215.670401 398.487273 215.670401 
z
" style="fill:#e5e419;stroke:#e5e419;"/>
    <path clip-path="url(#p7402d0ae33)" d="M 272.688133 55.241602 
C 273.131977 55.241602 273.557703 55.065261 273.871548 54.751415 
C 274.185394 54.43757 274.361735 54.011844 274.361735 53.568 
C 274.361735 53.124156 274.185394 52.69843 273.871548 52.384585 
C 273.557703 52.070739 273.131977 51.894398 272.688133 51.894398 
C 272.244289 51.894398 271.818563 52.070739 271.504718 52.384585 
C 271.190872 52.69843 271.014531 53.124156 271.014531 53.568 
C 271.014531 54.011844 271.190872 54.43757 271.504718 54.751415 
C 271.818563 55.065261 272.244289 55.241602 272.688133 55.241602 
z
" style="fill:#482878;stroke:#482878;"/>
    <path clip-path="url(#p7402d0ae33)" d="M 354.447324 225.698983 
C 354.916135 225.698983 355.365809 225.512723 355.697308 225.181223 
C 356.028808 224.849723 356.215069 224.40005 356.215069 223.931238 
C 356.215069 223.462427 356.028808 223.012753 355.697308 222.681254 
C 355.365809 222.349754 354.916135 222.163493 354.447324 222.163493 
C 353.978512 222.163493 353.528839 222.349754 353.197339 222.681254 
C 352.865839 223.012753 352.679579 223.462427 352.679579 223.931238 
C 352.679579 224.40005 352.865839 224.849723 353.197339 225.181223 
C 353.528839 225.512723 353.978512 225.698983 354.447324 225.698983 
z
" style="fill:#228d8d;stroke:#228d8d;"/>
    <path clip-path="url(#p7402d0ae33)" d="M 337.784338 115.391642 
C 339.375642 115.391642 340.901984 114.75941 342.027206 113.634188 
C 343.152428 112.508966 343.78466 110.982624 343.78466 109.391319 
C 343.78466 107.800015 343.152428 106.273673 342.027206 105.148451 
C 340.901984 104.023229 339.375642 103.390997 337.784338 103.390997 
C 336.193034 103.390997 334.666691 104.023229 333.541469 105.148451 
C 332.416247 106.273673 331.784015 107.800015 331.784015 109.391319 
C 331.784015 110.982624 332.416247 112.508966 333.541469 113.634188 
C 334.666691 114.75941 336.193034 115.391642 337.784338 115.391642 
z
" style="fill:#453882;stroke:#453882;"/>
    <path clip-path="url(#p7402d0ae33)" d="M 77.47908 253.266514 
C 79.14878 253.266514 80.750318 252.603136 81.930974 251.42248 
C 83.11163 250.241824 83.775008 248.640286 83.775008 246.970586 
C 83.775008 245.300886 83.11163 243.699348 81.930974 242.518692 
C 80.750318 241.338036 79.14878 240.674658 77.47908 240.674658 
C 75.80938 240.674658 74.207843 241.338036 73.027187 242.518692 
C 71.846531 243.699348 71.183152 245.300886 71.183152 246.970586 
C 71.183152 248.640286 71.846531 250.241824 73.027187 251.42248 
C 74.207843 252.603136 75.80938 253.266514 77.47908 253.266514 
z
" style="fill:#1e9b8a;stroke:#1e9b8a;"/>
    <path clip-path="url(#p7402d0ae33)" d="M 120.524739 198.605983 
C 121.774815 198.605983 122.97386 198.109323 123.857797 197.225385 
C 124.741734 196.341448 125.238395 195.142404 125.238395 193.892328 
C 125.238395 192.642252 124.741734 191.443207 123.857797 190.55927 
C 122.97386 189.675333 121.774815 189.178672 120.524739 189.178672 
C 119.274663 189.178672 118.075619 189.675333 117.191682 190.55927 
C 116.307744 191.443207 115.811084 192.642252 115.811084 193.892328 
C 115.811084 195.142404 116.307744 196.341448 117.191682 197.225385 
C 118.075619 198.109323 119.274663 198.605983 120.524739 198.605983 
z
" style="fill:#375a8c;stroke:#375a8c;"/>
    <path clip-path="url(#p7402d0ae33)" d="M 223.294675 280.849293 
C 225.087064 280.849293 226.806283 280.137169 228.073694 278.869759 
C 229.341104 277.602348 230.053228 275.88313 230.053228 274.090741 
C 230.053228 272.298351 229.341104 270.579133 228.073694 269.311722 
C 226.806283 268.044312 225.087064 267.332188 223.294675 267.332188 
C 221.502286 267.332188 219.783068 268.044312 218.515657 269.311722 
C 217.248247 270.579133 216.536123 272.298351 216.536123 274.090741 
C 216.536123 275.88313 217.248247 277.602348 218.515657 278.869759 
C 219.783068 280.137169 221.502286 280.849293 223.294675 280.849293 
z
" style="fill:#d8e219;stroke:#d8e219;"/>
    <path clip-path="url(#p7402d0ae33)" d="M 95.840223 222.357935 
C 97.254965 222.357935 98.611954 221.795852 99.612328 220.795478 
C 100.612702 219.795105 101.174785 218.438116 101.174785 217.023374 
C 101.174785 215.608631 100.612702 214.251643 99.612328 213.251269 
C 98.611954 212.250895 97.254965 211.688812 95.840223 211.688812 
C 94.425481 211.688812 93.068492 212.250895 92.068118 213.251269 
C 91.067744 214.251643 90.505661 215.608631 90.505661 217.023374 
C 90.505661 218.438116 91.067744 219.795105 92.068118 220.795478 
C 93.068492 221.795852 94.425481 222.357935 95.840223 222.357935 
z
" style="fill:#2cb17e;stroke:#2cb17e;"/>
    <path clip-path="url(#p7402d0ae33)" d="M 77.15554 90.114412 
C 78.737173 90.114412 80.254239 89.486022 81.372622 88.367639 
C 82.491006 87.249256 83.119395 85.732189 83.119395 84.150557 
C 83.119395 82.568924 82.491006 81.051857 81.372622 79.933474 
C 80.254239 78.815091 78.737173 78.186701 77.15554 78.186701 
C 75.573907 78.186701 74.056841 78.815091 72.938458 79.933474 
C 71.820074 81.051857 71.191685 82.568924 71.191685 84.150557 
C 71.191685 85.732189 71.820074 87.249256 72.938458 88.367639 
C 74.056841 89.486022 75.573907 90.114412 77.15554 90.114412 
z
" style="fill:#a2da37;stroke:#a2da37;"/>
    <path clip-path="url(#p7402d0ae33)" d="M 91.77808 184.093552 
C 92.815044 184.093552 93.809675 183.681562 94.542919 182.948318 
C 95.276164 182.215074 95.688154 181.220442 95.688154 180.183478 
C 95.688154 179.146515 95.276164 178.151883 94.542919 177.418639 
C 93.809675 176.685395 92.815044 176.273405 91.77808 176.273405 
C 90.741116 176.273405 89.746484 176.685395 89.01324 177.418639 
C 88.279996 178.151883 87.868006 179.146515 87.868006 180.183478 
C 87.868006 181.220442 88.279996 182.215074 89.01324 182.948318 
C 89.746484 183.681562 90.741116 184.093552 91.77808 184.093552 
z
" style="fill:#2fb47c;stroke:#2fb47c;"/>
    <path clip-path="url(#p7402d0ae33)" d="M 233.734898 155.548884 
C 235.00128 155.548884 236.215965 155.045745 237.111432 154.150278 
C 238.006899 153.25481 238.510038 152.040126 238.510038 150.773744 
C 238.510038 149.507362 238.006899 148.292677 237.111432 147.39721 
C 236.215965 146.501742 235.00128 145.998603 233.734898 145.998603 
C 232.468516 145.998603 231.253831 146.501742 230.358364 147.39721 
C 229.462896 148.292677 228.959758 149.507362 228.959758 150.773744 
C 228.959758 152.040126 229.462896 153.25481 230.358364 154.150278 
C 231.253831 155.045745 232.468516 155.548884 233.734898 155.548884 
z
" style="fill:#481467;stroke:#481467;"/>
    <path clip-path="url(#p7402d0ae33)" d="M 234.755887 95.41776 
C 235.835955 95.41776 236.871931 94.988645 237.635655 94.224921 
C 238.399378 93.461198 238.828494 92.425221 238.828494 91.345153 
C 238.828494 90.265085 238.399378 89.229109 237.635655 88.465385 
C 236.871931 87.701662 235.835955 87.272546 234.755887 87.272546 
C 233.675819 87.272546 232.639842 87.701662 231.876119 88.465385 
C 231.112395 89.229109 230.68328 90.265085 230.68328 91.345153 
C 230.68328 92.425221 231.112395 93.461198 231.876119 94.224921 
C 232.639842 94.988645 233.675819 95.41776 234.755887 95.41776 
z
" style="fill:#481a6c;stroke:#481a6c;"/>
    <path clip-path="url(#p7402d0ae33)" d="M 353.776501 241.878397 
C 355.474056 241.878397 357.102312 241.203951 358.302665 240.003599 
C 359.503018 238.803246 360.177464 237.17499 360.177464 235.477434 
C 360.177464 233.779879 359.503018 232.151623 358.302665 230.95127 
C 357.102312 229.750917 355.474056 229.076472 353.776501 229.076472 
C 352.078946 229.076472 350.450689 229.750917 349.250337 230.95127 
C 348.049984 232.151623 347.375538 233.779879 347.375538 235.477434 
C 347.375538 237.17499 348.049984 238.803246 349.250337 240.003599 
C 350.450689 241.203951 352.078946 241.878397 353.776501 241.878397 
z
" style="fill:#1f948c;stroke:#1f948c;"/>
    <path clip-path="url(#p7402d0ae33)" d="M 73.832727 158.593826 
C 74.812851 158.593826 75.752963 158.204418 76.446015 157.511367 
C 77.139067 156.818315 77.528474 155.878203 77.528474 154.898079 
C 77.528474 153.917956 77.139067 152.977844 76.446015 152.284792 
C 75.752963 151.59174 74.812851 151.202333 73.832727 151.202333 
C 72.852604 151.202333 71.912492 151.59174 71.21944 152.284792 
C 70.526388 152.977844 70.136981 153.917956 70.136981 154.898079 
C 70.136981 155.878203 70.526388 156.818315 71.21944 157.511367 
C 71.912492 158.204418 72.852604 158.593826 73.832727 158.593826 
z
" style="fill:#eae51a;stroke:#eae51a;"/>
   </g>
   <g id="matplotlib.axis_1">
    <g id="xtick_1">
     <g id="line2d_1">
      <defs>
       <path d="M 0 0 
L 0 3.5 
" id="m5a67ddd450" style="stroke:#000000;stroke-width:0.8;"/>
      </defs>
      <g>
       <use style="stroke:#000000;stroke-width:0.8;" x="109.975" xlink:href="#m5a67ddd450" y="307.584"/>
      </g>
     </g>
     <g id="text_1">
      <!-- 0.2 -->
      <g transform="translate(102.023437 322.182437)scale(0.1 -0.1)">
       <defs>
        <path d="M 31.78125 66.40625 
Q 24.171875 66.40625 20.328125 58.90625 
Q 16.5 51.421875 16.5 36.375 
Q 16.5 21.390625 20.328125 13.890625 
Q 24.171875 6.390625 31.78125 6.390625 
Q 39.453125 6.390625 43.28125 13.890625 
Q 47.125 21.390625 47.125 36.375 
Q 47.125 51.421875 43.28125 58.90625 
Q 39.453125 66.40625 31.78125 66.40625 
z
M 31.78125 74.21875 
Q 44.046875 74.21875 50.515625 64.515625 
Q 56.984375 54.828125 56.984375 36.375 
Q 56.984375 17.96875 50.515625 8.265625 
Q 44.046875 -1.421875 31.78125 -1.421875 
Q 19.53125 -1.421875 13.0625 8.265625 
Q 6.59375 17.96875 6.59375 36.375 
Q 6.59375 54.828125 13.0625 64.515625 
Q 19.53125 74.21875 31.78125 74.21875 
z
" id="DejaVuSans-48"/>
        <path d="M 10.6875 12.40625 
L 21 12.40625 
L 21 0 
L 10.6875 0 
z
" id="DejaVuSans-46"/>
        <path d="M 19.1875 8.296875 
L 53.609375 8.296875 
L 53.609375 0 
L 7.328125 0 
L 7.328125 8.296875 
Q 12.9375 14.109375 22.625 23.890625 
Q 32.328125 33.6875 34.8125 36.53125 
Q 39.546875 41.84375 41.421875 45.53125 
Q 43.3125 49.21875 43.3125 52.78125 
Q 43.3125 58.59375 39.234375 62.25 
Q 35.15625 65.921875 28.609375 65.921875 
Q 23.96875 65.921875 18.8125 64.3125 
Q 13.671875 62.703125 7.8125 59.421875 
L 7.8125 69.390625 
Q 13.765625 71.78125 18.9375 73 
Q 24.125 74.21875 28.421875 74.21875 
Q 39.75 74.21875 46.484375 68.546875 
Q 53.21875 62.890625 53.21875 53.421875 
Q 53.21875 48.921875 51.53125 44.890625 
Q 49.859375 40.875 45.40625 35.40625 
Q 44.1875 33.984375 37.640625 27.21875 
Q 31.109375 20.453125 19.1875 8.296875 
z
" id="DejaVuSans-50"/>
       </defs>
       <use xlink:href="#DejaVuSans-48"/>
       <use x="63.623047" xlink:href="#DejaVuSans-46"/>
       <use x="95.410156" xlink:href="#DejaVuSans-50"/>
      </g>
     </g>
    </g>
    <g id="xtick_2">
     <g id="line2d_2">
      <g>
       <use style="stroke:#000000;stroke-width:0.8;" x="183.572367" xlink:href="#m5a67ddd450" y="307.584"/>
      </g>
     </g>
     <g id="text_2">
      <!-- 0.4 -->
      <g transform="translate(175.620804 322.182437)scale(0.1 -0.1)">
       <defs>
        <path d="M 37.796875 64.3125 
L 12.890625 25.390625 
L 37.796875 25.390625 
z
M 35.203125 72.90625 
L 47.609375 72.90625 
L 47.609375 25.390625 
L 58.015625 25.390625 
L 58.015625 17.1875 
L 47.609375 17.1875 
L 47.609375 0 
L 37.796875 0 
L 37.796875 17.1875 
L 4.890625 17.1875 
L 4.890625 26.703125 
z
" id="DejaVuSans-52"/>
       </defs>
       <use xlink:href="#DejaVuSans-48"/>
       <use x="63.623047" xlink:href="#DejaVuSans-46"/>
       <use x="95.410156" xlink:href="#DejaVuSans-52"/>
      </g>
     </g>
    </g>
    <g id="xtick_3">
     <g id="line2d_3">
      <g>
       <use style="stroke:#000000;stroke-width:0.8;" x="257.169734" xlink:href="#m5a67ddd450" y="307.584"/>
      </g>
     </g>
     <g id="text_3">
      <!-- 0.6 -->
      <g transform="translate(249.218171 322.182437)scale(0.1 -0.1)">
       <defs>
        <path d="M 33.015625 40.375 
Q 26.375 40.375 22.484375 35.828125 
Q 18.609375 31.296875 18.609375 23.390625 
Q 18.609375 15.53125 22.484375 10.953125 
Q 26.375 6.390625 33.015625 6.390625 
Q 39.65625 6.390625 43.53125 10.953125 
Q 47.40625 15.53125 47.40625 23.390625 
Q 47.40625 31.296875 43.53125 35.828125 
Q 39.65625 40.375 33.015625 40.375 
z
M 52.59375 71.296875 
L 52.59375 62.3125 
Q 48.875 64.0625 45.09375 64.984375 
Q 41.3125 65.921875 37.59375 65.921875 
Q 27.828125 65.921875 22.671875 59.328125 
Q 17.53125 52.734375 16.796875 39.40625 
Q 19.671875 43.65625 24.015625 45.921875 
Q 28.375 48.1875 33.59375 48.1875 
Q 44.578125 48.1875 50.953125 41.515625 
Q 57.328125 34.859375 57.328125 23.390625 
Q 57.328125 12.15625 50.6875 5.359375 
Q 44.046875 -1.421875 33.015625 -1.421875 
Q 20.359375 -1.421875 13.671875 8.265625 
Q 6.984375 17.96875 6.984375 36.375 
Q 6.984375 53.65625 15.1875 63.9375 
Q 23.390625 74.21875 37.203125 74.21875 
Q 40.921875 74.21875 44.703125 73.484375 
Q 48.484375 72.75 52.59375 71.296875 
z
" id="DejaVuSans-54"/>
       </defs>
       <use xlink:href="#DejaVuSans-48"/>
       <use x="63.623047" xlink:href="#DejaVuSans-46"/>
       <use x="95.410156" xlink:href="#DejaVuSans-54"/>
      </g>
     </g>
    </g>
    <g id="xtick_4">
     <g id="line2d_4">
      <g>
       <use style="stroke:#000000;stroke-width:0.8;" x="330.767101" xlink:href="#m5a67ddd450" y="307.584"/>
      </g>
     </g>
     <g id="text_4">
      <!-- 0.8 -->
      <g transform="translate(322.815538 322.182437)scale(0.1 -0.1)">
       <defs>
        <path d="M 31.78125 34.625 
Q 24.75 34.625 20.71875 30.859375 
Q 16.703125 27.09375 16.703125 20.515625 
Q 16.703125 13.921875 20.71875 10.15625 
Q 24.75 6.390625 31.78125 6.390625 
Q 38.8125 6.390625 42.859375 10.171875 
Q 46.921875 13.96875 46.921875 20.515625 
Q 46.921875 27.09375 42.890625 30.859375 
Q 38.875 34.625 31.78125 34.625 
z
M 21.921875 38.8125 
Q 15.578125 40.375 12.03125 44.71875 
Q 8.5 49.078125 8.5 55.328125 
Q 8.5 64.0625 14.71875 69.140625 
Q 20.953125 74.21875 31.78125 74.21875 
Q 42.671875 74.21875 48.875 69.140625 
Q 55.078125 64.0625 55.078125 55.328125 
Q 55.078125 49.078125 51.53125 44.71875 
Q 48 40.375 41.703125 38.8125 
Q 48.828125 37.15625 52.796875 32.3125 
Q 56.78125 27.484375 56.78125 20.515625 
Q 56.78125 9.90625 50.3125 4.234375 
Q 43.84375 -1.421875 31.78125 -1.421875 
Q 19.734375 -1.421875 13.25 4.234375 
Q 6.78125 9.90625 6.78125 20.515625 
Q 6.78125 27.484375 10.78125 32.3125 
Q 14.796875 37.15625 21.921875 38.8125 
z
M 18.3125 54.390625 
Q 18.3125 48.734375 21.84375 45.5625 
Q 25.390625 42.390625 31.78125 42.390625 
Q 38.140625 42.390625 41.71875 45.5625 
Q 45.3125 48.734375 45.3125 54.390625 
Q 45.3125 60.0625 41.71875 63.234375 
Q 38.140625 66.40625 31.78125 66.40625 
Q 25.390625 66.40625 21.84375 63.234375 
Q 18.3125 60.0625 18.3125 54.390625 
z
" id="DejaVuSans-56"/>
       </defs>
       <use xlink:href="#DejaVuSans-48"/>
       <use x="63.623047" xlink:href="#DejaVuSans-46"/>
       <use x="95.410156" xlink:href="#DejaVuSans-56"/>
      </g>
     </g>
    </g>
    <g id="xtick_5">
     <g id="line2d_5">
      <g>
       <use style="stroke:#000000;stroke-width:0.8;" x="404.364468" xlink:href="#m5a67ddd450" y="307.584"/>
      </g>
     </g>
     <g id="text_5">
      <!-- 1.0 -->
      <g transform="translate(396.412905 322.182437)scale(0.1 -0.1)">
       <defs>
        <path d="M 12.40625 8.296875 
L 28.515625 8.296875 
L 28.515625 63.921875 
L 10.984375 60.40625 
L 10.984375 69.390625 
L 28.421875 72.90625 
L 38.28125 72.90625 
L 38.28125 8.296875 
L 54.390625 8.296875 
L 54.390625 0 
L 12.40625 0 
z
" id="DejaVuSans-49"/>
       </defs>
       <use xlink:href="#DejaVuSans-49"/>
       <use x="63.623047" xlink:href="#DejaVuSans-46"/>
       <use x="95.410156" xlink:href="#DejaVuSans-48"/>
      </g>
     </g>
    </g>
   </g>
   <g id="matplotlib.axis_2">
    <g id="ytick_1">
     <g id="line2d_6">
      <defs>
       <path d="M 0 0 
L -3.5 0 
" id="m68415afd13" style="stroke:#000000;stroke-width:0.8;"/>
      </defs>
      <g>
       <use style="stroke:#000000;stroke-width:0.8;" x="57.6" xlink:href="#m68415afd13" y="301.041993"/>
      </g>
     </g>
     <g id="text_6">
      <!-- 0.0 -->
      <g transform="translate(34.696875 304.841212)scale(0.1 -0.1)">
       <use xlink:href="#DejaVuSans-48"/>
       <use x="63.623047" xlink:href="#DejaVuSans-46"/>
       <use x="95.410156" xlink:href="#DejaVuSans-48"/>
      </g>
     </g>
    </g>
    <g id="ytick_2">
     <g id="line2d_7">
      <g>
       <use style="stroke:#000000;stroke-width:0.8;" x="57.6" xlink:href="#m68415afd13" y="247.544047"/>
      </g>
     </g>
     <g id="text_7">
      <!-- 0.2 -->
      <g transform="translate(34.696875 251.343266)scale(0.1 -0.1)">
       <use xlink:href="#DejaVuSans-48"/>
       <use x="63.623047" xlink:href="#DejaVuSans-46"/>
       <use x="95.410156" xlink:href="#DejaVuSans-50"/>
      </g>
     </g>
    </g>
    <g id="ytick_3">
     <g id="line2d_8">
      <g>
       <use style="stroke:#000000;stroke-width:0.8;" x="57.6" xlink:href="#m68415afd13" y="194.0461"/>
      </g>
     </g>
     <g id="text_8">
      <!-- 0.4 -->
      <g transform="translate(34.696875 197.845319)scale(0.1 -0.1)">
       <use xlink:href="#DejaVuSans-48"/>
       <use x="63.623047" xlink:href="#DejaVuSans-46"/>
       <use x="95.410156" xlink:href="#DejaVuSans-52"/>
      </g>
     </g>
    </g>
    <g id="ytick_4">
     <g id="line2d_9">
      <g>
       <use style="stroke:#000000;stroke-width:0.8;" x="57.6" xlink:href="#m68415afd13" y="140.548154"/>
      </g>
     </g>
     <g id="text_9">
      <!-- 0.6 -->
      <g transform="translate(34.696875 144.347373)scale(0.1 -0.1)">
       <use xlink:href="#DejaVuSans-48"/>
       <use x="63.623047" xlink:href="#DejaVuSans-46"/>
       <use x="95.410156" xlink:href="#DejaVuSans-54"/>
      </g>
     </g>
    </g>
    <g id="ytick_5">
     <g id="line2d_10">
      <g>
       <use style="stroke:#000000;stroke-width:0.8;" x="57.6" xlink:href="#m68415afd13" y="87.050208"/>
      </g>
     </g>
     <g id="text_10">
      <!-- 0.8 -->
      <g transform="translate(34.696875 90.849426)scale(0.1 -0.1)">
       <use xlink:href="#DejaVuSans-48"/>
       <use x="63.623047" xlink:href="#DejaVuSans-46"/>
       <use x="95.410156" xlink:href="#DejaVuSans-56"/>
      </g>
     </g>
    </g>
   </g>
   <g id="patch_3">
    <path d="M 57.6 307.584 
L 57.6 41.472 
" style="fill:none;stroke:#000000;stroke-linecap:square;stroke-linejoin:miter;stroke-width:0.8;"/>
   </g>
   <g id="patch_4">
    <path d="M 414.72 307.584 
L 414.72 41.472 
" style="fill:none;stroke:#000000;stroke-linecap:square;stroke-linejoin:miter;stroke-width:0.8;"/>
   </g>
   <g id="patch_5">
    <path d="M 57.6 307.584 
L 414.72 307.584 
" style="fill:none;stroke:#000000;stroke-linecap:square;stroke-linejoin:miter;stroke-width:0.8;"/>
   </g>
   <g id="patch_6">
    <path d="M 57.6 41.472 
L 414.72 41.472 
" style="fill:none;stroke:#000000;stroke-linecap:square;stroke-linejoin:miter;stroke-width:0.8;"/>
   </g>
  </g>
 </g>
 <defs>
  <clipPath id="p7402d0ae33">
   <rect height="266.112" width="357.12" x="57.6" y="41.472"/>
  </clipPath>
 </defs>
</svg>
